<?xml version="1.0" encoding="UTF-8" standalone="no"?>
<!DOCTYPE svg PUBLIC "-//W3C//DTD SVG 1.1//EN" "http://www.w3.org/Graphics/SVG/1.1/DTD/svg11.dtd">
<svg xmlns="http://www.w3.org/2000/svg" version="1.1" viewBox="0.00 0.00 512.00 512.00">
<path fill="#e4e4e4" d="
  M 257.00 272.94
  Q 184.86 272.89 111.79 272.93
  Q 95.23 272.94 88.50 271.58
  C 58.19 265.45 34.39 241.73 28.28 211.29
  Q 26.60 202.95 26.68 182.10
  Q 26.84 138.53 26.71 43.75
  A 0.42 0.41 -0.3 0 1 27.12 43.34
  Q 192.72 43.27 257.09 43.31
  Q 329.23 43.36 402.30 43.32
  Q 418.86 43.31 425.59 44.67
  C 455.90 50.80 479.70 74.52 485.81 104.96
  Q 487.49 113.30 487.41 134.15
  Q 487.25 177.72 487.38 272.50
  A 0.42 0.41 -0.3 0 1 486.96 272.91
  Q 321.36 272.98 257.00 272.94
  Z
  M 218.67 135.68
  L 218.67 180.49
  A 0.65 0.65 0.0 0 1 218.02 181.14
  L 118.97 181.14
  A 1.29 1.26 73.0 0 1 117.91 180.56
  C 116.58 178.55 115.48 175.97 113.90 174.14
  Q 106.18 165.19 94.62 165.82
  C 77.67 166.74 68.34 184.46 75.30 198.97
  C 78.98 206.65 87.16 211.81 95.50 211.82
  Q 108.43 211.83 115.52 201.21
  C 116.45 199.82 116.94 198.17 117.76 196.93
  A 1.04 1.01 16.2 0 1 118.62 196.47
  Q 165.55 196.54 221.75 196.45
  Q 227.20 196.44 227.75 196.34
  C 233.80 195.29 234.18 190.45 234.10 184.52
  Q 234.02 178.86 234.07 166.37
  A 0.43 0.42 3.1 0 1 234.54 165.95
  L 278.91 170.24
  A 0.44 0.44 0.0 0 1 279.31 170.68
  L 279.31 215.17
  A 1.89 1.88 -74.4 0 0 280.21 216.78
  C 284.05 219.11 286.83 219.64 292.10 219.64
  Q 341.39 219.65 349.81 219.62
  A 1.18 1.18 0.0 0 1 350.90 220.35
  C 355.39 231.40 367.35 237.46 379.06 233.79
  C 391.94 229.75 398.21 217.01 394.16 204.30
  C 390.34 192.30 376.38 185.54 364.38 190.12
  Q 354.83 193.76 350.96 203.15
  A 1.14 1.13 -78.8 0 1 349.91 203.86
  L 296.22 203.86
  A 0.74 0.74 0.0 0 1 295.48 203.12
  L 295.48 166.46
  A 0.70 0.69 0.0 0 1 296.18 165.77
  L 303.59 165.77
  A 1.26 1.24 -16.8 0 1 304.63 166.32
  C 305.88 168.21 306.53 170.69 308.36 172.75
  Q 317.44 182.94 330.75 180.75
  Q 335.32 180.00 340.76 176.17
  A 2.60 2.34 -1.3 0 0 341.25 175.71
  L 346.42 169.50
  A 2.27 2.21 77.8 0 0 346.72 169.02
  Q 353.23 154.72 343.72 142.98
  C 339.54 137.82 332.30 134.80 325.36 135.15
  Q 311.31 135.84 304.78 149.44
  A 1.71 1.70 12.6 0 1 303.24 150.41
  L 296.28 150.41
  A 0.78 0.77 -90.0 0 1 295.51 149.63
  L 295.51 112.93
  A 0.72 0.71 90.0 0 1 296.22 112.21
  L 387.69 112.21
  A 1.45 1.43 68.5 0 1 388.75 112.68
  C 390.02 114.07 390.72 116.19 391.98 117.90
  C 399.36 127.90 413.59 130.50 423.85 123.09
  C 430.51 118.28 434.70 109.72 433.21 101.17
  C 429.13 77.79 398.58 74.28 389.16 95.98
  A 1.08 1.08 0.0 0 1 388.17 96.63
  Q 341.34 96.60 289.88 96.60
  Q 286.63 96.60 285.10 97.26
  C 280.58 99.19 279.99 102.15 280.09 107.39
  Q 280.15 109.88 280.13 149.92
  A 0.50 0.50 0.0 0 1 279.63 150.42
  L 234.52 150.42
  A 0.42 0.41 89.3 0 1 234.11 150.01
  Q 233.92 143.06 234.13 132.36
  C 234.28 124.70 233.42 119.63 224.79 119.65
  Q 167.81 119.76 164.56 119.69
  A 0.76 0.75 -10.8 0 1 163.88 119.23
  Q 158.54 106.53 146.19 104.37
  C 128.88 101.34 114.69 117.47 120.18 134.27
  C 123.09 143.17 130.84 149.10 140.00 150.02
  C 150.07 151.03 159.68 145.03 163.49 135.67
  A 0.89 0.87 10.8 0 1 164.31 135.12
  L 218.10 135.12
  A 0.57 0.56 0.0 0 1 218.67 135.68
  Z"
/>
<path fill="#e4e4e4" d="
  M 489.54 354.95
  A 0.88 0.86 38.5 0 1 489.67 355.99
  Q 473.08 384.24 451.25 408.49
  C 436.09 425.32 418.46 439.65 398.10 449.60
  C 381.03 457.94 363.23 461.67 344.60 461.90
  C 340.94 461.95 336.72 461.29 332.63 461.20
  Q 330.60 461.15 327.88 460.72
  C 310.07 457.85 292.02 453.09 275.38 447.60
  C 233.80 433.89 212.96 426.91 196.01 420.98
  Q 186.09 417.52 177.67 415.12
  C 171.54 413.37 166.38 412.69 160.28 413.60
  Q 156.54 414.16 154.34 414.62
  C 143.83 416.81 134.47 425.33 127.29 433.40
  Q 113.65 448.73 101.54 464.35
  A 1.29 1.27 33.3 0 1 99.90 464.68
  L 26.49 423.55
  A 1.25 1.25 0.0 0 1 26.10 421.70
  Q 27.73 419.57 28.31 418.58
  Q 43.94 391.77 64.28 370.28
  C 82.68 350.83 104.64 334.52 129.74 326.02
  C 138.90 322.91 148.18 321.56 157.99 320.71
  C 160.50 320.49 165.79 320.56 168.99 320.93
  Q 186.42 322.96 189.69 323.63
  Q 212.13 328.21 235.88 336.92
  Q 260.24 345.85 284.82 356.47
  C 296.56 361.54 306.68 365.93 318.12 369.13
  C 322.57 370.37 326.20 370.22 330.41 370.96
  C 335.25 371.80 339.71 370.93 345.75 370.21
  C 357.75 368.77 370.13 361.24 378.56 353.05
  Q 385.67 346.15 392.80 337.55
  Q 404.66 323.24 411.73 313.75
  Q 413.13 311.87 415.40 313.16
  Q 434.69 324.20 486.15 353.29
  C 487.33 353.96 488.77 354.17 489.54 354.95
  Z"
/>
</svg>
