<?xml version="1.0" encoding="UTF-8" standalone="no"?>
<!DOCTYPE svg PUBLIC "-//W3C//DTD SVG 1.1//EN" "http://www.w3.org/Graphics/SVG/1.1/DTD/svg11.dtd">
<svg xmlns="http://www.w3.org/2000/svg" version="1.1" viewBox="0.00 0.00 512.00 512.00">
<path fill="#1d1d1d" d="
  M 257.00 272.95
  Q 203.09 272.92 107.06 272.89
  Q 95.03 272.88 88.59 271.57
  C 52.11 264.15 26.92 232.87 26.82 195.48
  Q 26.67 142.12 26.78 43.73
  A 0.42 0.42 0.0 0 1 27.20 43.30
  Q 181.68 43.27 257.06 43.30
  Q 310.96 43.33 407.00 43.36
  Q 419.03 43.37 425.47 44.68
  C 461.95 52.10 487.14 83.38 487.24 120.77
  Q 487.39 174.13 487.28 272.52
  A 0.42 0.42 0.0 0 1 486.86 272.94
  Q 332.38 272.98 257.00 272.95
  Z
  M 164.28 135.07
  L 217.99 135.07
  A 0.64 0.63 -0.0 0 1 218.63 135.70
  L 218.63 180.43
  A 0.71 0.71 0.0 0 1 217.92 181.14
  L 118.66 181.14
  A 0.94 0.93 -12.3 0 1 117.81 180.60
  C 113.82 172.27 107.39 166.40 97.57 165.80
  C 76.14 164.50 64.28 190.67 80.10 205.49
  C 90.30 215.03 105.11 213.60 114.00 203.36
  C 115.24 201.94 116.70 199.19 117.68 197.17
  A 1.24 1.21 12.5 0 1 118.79 196.48
  Q 205.25 196.49 225.26 196.54
  C 232.53 196.56 234.15 192.41 234.08 185.69
  Q 233.90 169.30 234.04 166.55
  A 0.61 0.61 0.0 0 1 234.71 165.97
  L 278.63 170.22
  A 0.75 0.74 3.0 0 1 279.30 170.96
  L 279.30 215.61
  A 1.37 1.34 14.8 0 0 280.00 216.79
  C 283.61 218.78 286.50 219.63 291.17 219.64
  Q 300.04 219.65 349.73 219.65
  A 1.28 1.28 0.0 0 1 350.92 220.46
  C 358.17 238.29 382.77 239.89 392.32 223.38
  C 397.30 214.77 396.14 202.94 389.15 195.92
  Q 380.42 187.17 368.17 189.08
  C 360.59 190.27 353.58 196.10 350.93 203.16
  A 1.01 1.01 0.0 0 1 349.98 203.83
  L 295.84 203.83
  A 0.38 0.38 0.0 0 1 295.46 203.45
  L 295.46 166.24
  A 0.45 0.45 0.0 0 1 295.91 165.79
  L 303.41 165.79
  A 1.48 1.48 0.0 0 1 304.76 166.67
  C 311.46 181.47 328.68 185.96 341.55 175.47
  A 1.50 1.41 -45.0 0 0 341.70 175.32
  L 346.02 170.05
  A 1.71 0.50 -65.1 0 0 346.14 169.88
  C 350.45 162.66 350.42 153.16 345.96 146.03
  C 335.99 130.10 312.43 131.86 304.97 149.18
  A 2.11 2.09 -78.2 0 1 303.05 150.45
  L 296.26 150.45
  A 0.79 0.78 90.0 0 1 295.48 149.66
  L 295.48 112.96
  A 0.72 0.72 0.0 0 1 296.20 112.24
  L 387.80 112.24
  A 1.20 1.20 0.0 0 1 388.73 112.68
  C 390.20 114.50 391.14 117.10 392.67 118.86
  C 401.19 128.69 414.93 130.27 425.04 122.15
  C 435.59 113.68 436.48 96.81 426.08 87.54
  Q 419.66 81.82 410.98 81.48
  C 401.81 81.12 392.65 87.14 389.26 95.88
  A 1.20 1.19 10.9 0 1 388.15 96.63
  Q 348.16 96.63 291.49 96.58
  Q 285.79 96.58 283.55 97.96
  Q 280.11 100.09 280.11 104.99
  Q 280.07 144.48 280.13 149.84
  A 0.56 0.56 0.0 0 1 279.57 150.41
  L 234.66 150.41
  A 0.63 0.63 0.0 0 1 234.03 149.78
  Q 233.97 131.63 234.02 130.47
  C 234.28 124.29 232.56 119.71 225.75 119.69
  Q 192.69 119.63 164.60 119.70
  A 0.77 0.77 0.0 0 1 163.89 119.23
  Q 158.51 106.50 146.11 104.31
  Q 138.73 103.01 132.06 106.23
  C 113.69 115.12 114.95 141.35 134.12 148.64
  C 145.96 153.15 158.82 147.09 163.53 135.57
  A 0.82 0.81 -78.6 0 1 164.28 135.07
  Z"
/>
<path fill="#1d1d1d" d="
  M 26.28 422.97
  A 0.55 0.54 32.7 0 1 26.12 422.25
  C 36.00 404.92 47.37 388.93 61.40 373.40
  C 77.36 355.74 96.22 340.62 118.09 330.59
  Q 139.85 320.62 163.98 320.72
  C 168.66 320.73 172.52 321.48 178.00 322.00
  Q 190.46 323.19 207.23 327.81
  C 241.53 337.28 273.11 351.71 303.96 364.54
  Q 318.55 370.60 335.00 371.35
  Q 336.55 371.42 344.17 370.42
  Q 349.88 369.67 353.21 368.58
  C 365.24 364.65 375.70 356.81 384.05 347.54
  Q 398.37 331.64 411.80 313.62
  A 2.37 2.35 33.0 0 1 414.86 312.98
  L 488.97 354.82
  A 1.21 1.21 0.0 0 1 489.42 356.50
  Q 472.82 384.34 451.96 407.70
  C 435.94 425.64 417.10 440.86 395.38 450.92
  C 378.97 458.52 361.52 461.64 343.50 461.94
  Q 341.87 461.97 330.01 460.89
  Q 323.96 460.33 316.63 458.73
  Q 293.16 453.58 270.46 446.03
  Q 240.80 436.16 213.33 427.00
  C 200.55 422.74 188.12 417.89 174.87 414.40
  Q 168.32 412.67 162.43 413.29
  Q 155.55 414.02 150.69 415.69
  C 141.80 418.75 133.77 426.17 127.70 432.95
  Q 114.16 448.09 101.83 463.99
  A 1.81 1.80 -56.5 0 1 99.53 464.46
  Q 68.17 446.84 35.09 428.42
  Q 30.40 425.81 26.28 422.97
  Z"
/>
</svg>
